<?xml version="1.0" standalone="no"?>
<!DOCTYPE svg PUBLIC "-//W3C//DTD SVG 20010904//EN"
 "http://www.w3.org/TR/2001/REC-SVG-20010904/DTD/svg10.dtd">
<svg version="1.0" xmlns="http://www.w3.org/2000/svg"
 width="450.000000pt" height="450.000000pt" viewBox="0 0 450.000000 450.000000"
 preserveAspectRatio="xMidYMid meet">
<metadata>
Created by potrace 1.14, written by Peter Selinger 2001-2017
</metadata>
<g transform="translate(0.000000,450.000000) scale(0.100000,-0.100000)"
fill="#000000" stroke="none">
<path d="M190 4496 c0 -1 11 -24 25 -49 13 -26 22 -53 19 -60 -2 -7 -27 -21
-54 -32 -27 -10 -47 -23 -44 -27 3 -4 -4 -8 -14 -8 -11 0 -25 -6 -31 -13 -6
-8 -28 -22 -49 -31 -27 -12 -38 -24 -40 -42 -1 -13 1 -24 4 -24 4 0 48 30 97
68 50 37 97 66 104 64 7 -2 13 2 13 8 0 25 41 6 84 -37 35 -36 55 -72 86 -148
22 -55 40 -116 40 -136 0 -19 5 -40 11 -46 7 -7 13 -119 18 -330 6 -299 2
-380 -19 -428 -5 -11 -12 -49 -16 -85 -3 -36 -20 -105 -36 -155 -16 -49 -29
-106 -29 -125 0 -62 -31 -324 -42 -353 -5 -15 -11 -45 -12 -65 -2 -32 -42
-152 -55 -166 -3 -3 -40 -7 -82 -10 -49 -4 -93 -13 -122 -28 l-46 -22 0 -53
c0 -29 4 -53 8 -53 4 0 31 11 59 26 28 14 68 28 87 31 33 5 36 4 36 -19 0 -33
-72 -152 -170 -280 -19 -24 -20 -40 -20 -253 0 -148 3 -224 10 -220 5 3 10 14
10 24 0 10 10 27 23 38 27 26 175 117 202 125 11 4 70 27 130 53 141 60 147
61 157 10 4 -22 12 -49 17 -60 5 -11 14 -45 20 -76 10 -46 9 -64 -3 -100 -9
-24 -16 -52 -16 -62 0 -17 -17 -54 -89 -192 -11 -22 -27 -75 -36 -117 -25
-121 -53 -169 -133 -221 -99 -66 -234 -143 -265 -151 -26 -6 -27 -8 -27 -82 0
-73 1 -75 22 -68 12 4 67 41 123 82 55 41 123 87 150 100 77 39 110 68 158
140 38 58 46 78 56 152 8 62 22 107 51 165 21 44 52 110 67 147 15 37 32 68
37 68 5 0 17 7 27 16 20 18 15 44 -10 44 -13 0 -13 -2 -2 -9 7 -5 11 -14 7
-20 -5 -7 -12 -7 -26 1 -23 15 -30 28 -42 88 -43 214 -45 197 22 221 30 12 96
29 145 40 83 18 93 18 130 4 23 -8 54 -15 71 -15 16 0 38 -6 49 -14 11 -7 37
-16 59 -20 l38 -7 -25 25 c-36 36 -167 86 -226 86 -18 0 -34 6 -37 15 -6 14
34 78 88 143 16 18 28 37 28 43 0 18 102 129 118 129 16 0 23 -8 84 -97 48
-71 82 -95 115 -82 17 6 25 4 31 -9 17 -33 43 -142 37 -153 -4 -5 4 -27 17
-47 13 -20 30 -49 38 -64 8 -14 27 -46 42 -70 19 -31 28 -61 31 -105 5 -70 -4
-80 -28 -30 -15 33 -135 147 -154 147 -19 0 -12 -14 29 -59 22 -24 40 -45 40
-48 0 -2 14 -16 32 -31 51 -43 88 -110 88 -159 0 -24 -3 -43 -7 -43 -5 0 -35
-4 -67 -10 -66 -11 -97 -33 -128 -94 -25 -48 -26 -161 -3 -227 8 -23 15 -49
15 -59 0 -10 -66 -69 -162 -146 -200 -160 -221 -174 -247 -174 -12 0 -21 -4
-21 -9 0 -8 -121 -57 -315 -126 -167 -60 -209 -76 -244 -95 -20 -10 -68 -28
-107 -40 -39 -11 -98 -32 -130 -45 l-59 -24 -3 -120 -3 -121 2001 0 c1100 0
2000 4 2000 8 0 5 -9 17 -20 27 -12 10 -18 25 -15 32 2 8 1 11 -5 8 -5 -3 -27
19 -49 48 -22 30 -45 60 -53 68 -13 15 -82 99 -108 134 -8 11 -54 59 -101 108
-48 48 -86 87 -85 87 6 0 112 -36 196 -67 159 -59 708 -243 725 -243 36 0 10
17 -52 34 -75 21 -512 170 -693 236 -63 24 -140 49 -170 57 -30 9 -75 30 -100
48 -25 18 -88 61 -140 95 -52 35 -112 76 -132 92 l-38 30 0 83 c0 49 6 100 15
126 26 72 30 150 11 188 -18 35 -100 81 -144 81 l-24 0 4 129 c3 117 5 132 26
158 43 54 82 129 120 226 35 92 38 97 62 92 23 -5 23 -4 8 8 -23 18 -22 29 1
103 11 32 22 70 25 84 3 14 24 45 46 70 68 75 160 199 151 204 -10 6 -25 -10
-69 -74 -18 -25 -48 -63 -67 -85 l-36 -40 7 40 c14 88 -15 13 -65 -163 -72
-256 -122 -366 -218 -478 -145 -171 -269 -285 -418 -384 -44 -29 -89 -61 -100
-70 -11 -10 -60 -39 -108 -65 -81 -44 -94 -47 -153 -46 -91 2 -127 22 -329
181 -127 100 -370 338 -413 405 -14 22 -32 46 -40 54 -37 38 -80 156 -137 376
-27 104 -43 150 -51 142 -3 -3 0 -25 7 -48 29 -105 29 -110 6 -118 -32 -12
-42 -5 -92 64 -25 35 -51 69 -58 77 -44 45 -174 264 -218 368 -30 73 -31 78
-26 195 6 119 32 250 57 280 22 26 73 18 111 -16 22 -21 27 -29 14 -24 -79 29
-78 29 -96 6 -20 -25 -37 -147 -22 -162 7 -7 21 3 42 30 36 45 65 59 86 41 21
-17 18 -38 -5 -45 -29 -9 -70 -68 -77 -111 -4 -27 -3 -35 5 -30 7 4 12 15 12
25 0 26 52 101 71 101 18 0 45 -49 55 -97 3 -16 -1 -40 -10 -58 -30 -58 -11
-164 47 -263 28 -48 33 -24 6 29 -44 87 -60 149 -49 190 14 51 29 58 43 20 18
-48 28 -37 21 22 -4 28 -8 108 -8 177 l-1 125 59 21 c32 11 78 37 103 57 39
31 53 37 94 37 27 0 49 -3 49 -7 0 -9 -50 -95 -68 -115 -8 -10 -12 -18 -8 -18
22 0 70 36 114 85 l49 56 202 5 c170 3 206 2 224 -11 31 -22 43 -18 21 6 -40
45 -65 50 -250 50 -127 1 -174 4 -171 13 31 84 86 391 117 651 23 190 30 251
30 267 0 13 16 22 57 34 70 20 165 14 223 -16 22 -11 40 -17 40 -12 0 5 -21
19 -47 33 -38 19 -63 24 -123 24 -41 0 -90 -4 -108 -8 l-32 -9 6 39 c3 21 8
41 11 46 12 20 154 -5 188 -33 6 -5 20 -7 31 -4 12 3 35 -6 62 -25 24 -18 42
-26 42 -19 0 16 -60 56 -126 85 -34 15 -76 23 -123 25 -70 2 -70 2 -65 28 12
52 27 96 51 143 29 58 26 85 -4 36 -54 -87 -93 -265 -133 -609 -11 -96 -25
-200 -30 -230 -5 -30 -16 -104 -25 -164 -16 -119 -49 -253 -73 -301 -18 -36
-73 -108 -78 -102 -3 2 11 36 31 75 72 146 106 286 126 517 5 66 17 165 24
220 26 176 29 219 17 212 -5 -4 -13 -26 -17 -50 -40 -256 -85 -453 -132 -582
-53 -146 -155 -323 -199 -348 -8 -5 5 18 29 50 70 92 156 288 182 412 5 25 4
32 -6 29 -7 -2 -20 -35 -30 -74 -21 -86 -41 -136 -96 -243 -50 -95 -54 -101
-105 -150 -38 -38 -102 -74 -153 -87 -26 -6 -22 -1 34 49 96 86 174 198 153
219 -6 6 -13 -2 -20 -22 -23 -64 -133 -185 -202 -220 -36 -18 -84 -17 -96 2
-4 5 12 29 34 51 65 68 137 176 207 308 83 160 84 142 1 -27 -61 -123 -74
-161 -41 -118 40 51 153 302 209 465 58 172 112 420 87 405 -6 -4 -11 -16 -11
-27 0 -11 -12 -70 -27 -130 -19 -80 -30 -108 -40 -107 -11 2 -27 -34 -57 -122
-23 -69 -53 -150 -66 -180 -31 -70 -100 -203 -109 -210 -3 -3 -19 -30 -35 -60
-62 -116 -169 -233 -222 -243 -68 -13 -114 16 -118 73 -1 9 -15 34 -31 55 -35
46 -62 104 -70 156 -8 42 27 112 50 103 17 -7 28 31 61 217 35 201 53 291 64
314 48 103 93 218 106 273 16 64 75 186 128 264 15 23 21 40 15 44 -6 3 -11 4
-13 3 -1 -2 -15 -26 -31 -54 -15 -27 -38 -61 -50 -75 -21 -24 -52 -107 -74
-203 -7 -27 -33 -97 -60 -155 -35 -78 -54 -138 -70 -222 -12 -63 -24 -124 -27
-135 -3 -11 -11 -64 -19 -118 -14 -95 -17 -101 -60 -149 -47 -52 -52 -70 -35
-128 6 -19 15 -62 20 -95 14 -95 28 -152 45 -186 23 -43 13 -69 -40 -107 -25
-17 -45 -37 -45 -43 0 -9 -3 -9 -14 0 -11 9 -15 7 -20 -13 -3 -14 -29 -41 -58
-63 -29 -21 -84 -67 -122 -102 -61 -55 -71 -61 -77 -45 -12 30 -10 37 5 25 10
-9 15 -8 20 4 3 9 0 15 -9 15 -7 0 -16 4 -19 9 -4 5 4 7 16 3 20 -5 21 -3 15
54 -4 39 -1 84 9 129 20 90 35 163 39 195 1 14 8 54 14 89 6 36 9 67 6 69 -2
2 5 14 16 26 15 15 19 29 15 50 -3 16 -6 46 -6 67 0 32 -3 37 -17 32 -12 -5
-14 -3 -7 8 5 8 7 79 6 159 l-2 145 40 63 c22 34 46 62 54 62 12 0 36 39 42
67 1 7 18 38 37 70 19 32 38 75 42 96 4 20 11 40 16 43 5 3 9 14 9 24 0 33 83
103 178 150 51 25 92 50 92 57 0 19 -17 24 -32 10 -7 -8 -18 -12 -25 -10 -15
5 -103 -37 -103 -50 0 -6 -3 -7 -6 -4 -4 3 -15 2 -25 -4 -14 -7 -19 -6 -19 3
0 22 29 110 41 125 7 7 9 16 6 19 -10 10 -67 -53 -67 -73 0 -11 -4 -23 -9 -28
-17 -19 -53 -147 -49 -175 3 -21 0 -30 -13 -33 -9 -2 -25 -26 -35 -53 -10 -27
-28 -58 -39 -70 -12 -11 -25 -31 -29 -45 -8 -30 -112 -146 -122 -137 -4 4 -6
36 -5 70 2 64 -12 164 -31 228 -16 53 -57 140 -74 157 -18 18 -64 111 -64 130
0 16 32 33 65 33 15 0 24 4 20 10 -3 6 1 10 9 10 10 0 16 8 15 23 -1 16 -2 18
-6 5 -2 -10 -12 -18 -21 -18 -12 0 -13 3 -5 11 12 12 7 39 -8 39 -4 0 -22 -13
-39 -30 -17 -16 -41 -30 -54 -30 -23 0 -66 37 -66 58 0 7 -11 12 -25 12 -14 0
-25 -2 -25 -4z m1263 -726 c-3 -12 -8 -19 -11 -16 -5 6 5 36 12 36 2 0 2 -9
-1 -20z m157 -365 c-23 -128 -52 -232 -77 -282 -17 -32 -39 -41 -81 -35 -22 3
-20 7 36 115 76 146 96 197 118 298 28 124 31 50 4 -96z m-801 -340 c11 -19
16 -35 11 -35 -27 0 -4 -20 40 -35 28 -9 50 -19 50 -21 0 -17 -24 -94 -29 -94
-16 0 -84 132 -96 188 -9 41 -2 41 24 -3z m1144 8 c3 -5 -60 -8 -139 -8 -79 0
-136 3 -126 7 23 9 260 10 265 1z m-823 -197 c0 -36 4 -67 9 -70 5 -4 12 -25
16 -49 3 -23 9 -51 12 -62 11 -43 -15 2 -33 55 -19 59 -28 190 -13 190 5 0 9
-29 9 -64z m-100 39 c39 -20 42 -47 5 -52 -11 -2 -33 -18 -48 -35 l-29 -33 5
30 c3 17 8 47 12 68 7 41 13 44 55 22z m-154 -82 c-15 -65 -18 -238 -5 -283 7
-25 13 -48 14 -51 1 -18 -235 -169 -264 -169 -5 0 -21 -10 -35 -23 -28 -26
-75 -42 -155 -52 l-53 -7 5 33 c3 19 13 67 23 108 17 73 19 75 127 187 60 62
113 111 118 108 4 -2 15 8 23 24 24 47 159 152 195 152 9 0 12 -8 7 -27z m68
-463 c20 -33 42 -70 49 -82 7 -13 25 -42 40 -65 l28 -41 -45 -43 c-26 -23 -44
-44 -42 -46 4 -4 -26 -41 -70 -87 -5 -6 -35 -45 -66 -86 -65 -88 -94 -116
-128 -123 -14 -3 -51 -13 -84 -23 -57 -17 -59 -17 -72 1 -9 12 -14 46 -14 93
0 65 3 80 26 109 14 18 21 33 17 33 -4 0 -1 5 7 11 12 8 10 9 -7 4 -20 -5 -23
-3 -23 21 0 15 5 57 11 93 11 69 34 101 70 101 11 0 38 17 62 38 53 49 182
145 203 152 1 0 18 -27 38 -60z m-401 -257 c-13 -54 -29 -103 -34 -109 -6 -7
-7 -62 -3 -136 l7 -125 -49 -12 c-27 -7 -83 -26 -125 -42 -42 -16 -81 -29 -87
-29 -5 0 -12 -3 -14 -8 -5 -11 -148 -75 -155 -68 -16 16 72 253 108 291 16 17
29 39 29 50 0 10 11 30 24 44 28 30 86 135 86 156 0 27 30 42 97 49 37 4 79
13 93 20 47 26 49 20 23 -81z m1080 -706 c163 -164 275 -262 397 -347 l34 -24
-43 -9 c-38 -8 -50 -5 -102 23 -44 23 -74 32 -123 34 -47 3 -79 11 -112 30
-26 15 -62 26 -83 26 -23 0 -47 9 -66 24 l-29 23 -1 172 c0 94 1 171 3 171 1
0 58 -55 125 -123z m1383 -77 c1 -99 -2 -180 -7 -180 -4 0 -24 -16 -45 -35
-33 -32 -42 -35 -94 -35 -42 0 -69 -7 -106 -26 -42 -23 -63 -27 -144 -28 -80
-2 -102 -6 -138 -26 -36 -20 -45 -22 -68 -11 -26 11 -24 13 107 103 74 50 175
123 224 163 94 75 255 230 255 246 0 5 3 9 8 9 4 0 7 -81 8 -180z"/>
<path d="M651 2644 c0 -11 3 -14 6 -6 3 7 2 16 -1 19 -3 4 -6 -2 -5 -13z"/>
<path d="M648 2525 c-3 -14 -1 -25 3 -25 5 0 9 11 9 25 0 14 -2 25 -4 25 -2 0
-6 -11 -8 -25z"/>
<path d="M632 2460 c0 -14 2 -19 5 -12 2 6 2 18 0 25 -3 6 -5 1 -5 -13z"/>
<path d="M612 2365 c0 -16 2 -22 5 -12 2 9 2 23 0 30 -3 6 -5 -1 -5 -18z"/>
<path d="M834 2247 c-31 -31 -46 -64 -34 -72 5 -3 10 1 10 9 0 9 6 15 13 14 7
-2 11 5 9 16 -2 11 1 15 7 11 6 -3 11 1 11 9 0 9 5 16 10 16 6 0 10 5 10 10 0
16 -13 11 -36 -13z"/>
<path d="M775 2159 c-4 -6 -5 -12 -2 -15 2 -3 7 2 10 11 7 17 1 20 -8 4z"/>
<path d="M705 2100 c-16 -7 -17 -9 -3 -9 9 -1 20 4 23 9 7 11 7 11 -20 0z"/>
<path d="M611 2034 c0 -11 3 -14 6 -6 3 7 2 16 -1 19 -3 4 -6 -2 -5 -13z"/>
<path d="M420 4490 c0 -5 7 -10 15 -10 8 0 15 5 15 10 0 6 -7 10 -15 10 -8 0
-15 -4 -15 -10z"/>
<path d="M1455 4450 c-27 -27 -46 -52 -42 -56 7 -8 106 84 107 99 0 15 -17 4
-65 -43z"/>
<path d="M2080 4496 c0 -3 19 -25 41 -48 23 -24 53 -60 66 -81 13 -22 27 -36
30 -33 6 5 -16 67 -27 76 -3 3 -17 23 -30 45 -31 53 -30 52 -40 35 -7 -11 -11
-11 -24 -1 -9 8 -16 11 -16 7z"/>
<path d="M2316 4405 c-46 -95 -55 -125 -36 -125 6 0 10 5 10 11 0 18 71 172
88 192 14 15 14 17 0 17 -10 0 -33 -37 -62 -95z"/>
<path d="M3437 4483 c3 -10 15 -30 25 -45 33 -48 145 -288 188 -403 46 -125
76 -283 84 -448 3 -59 9 -113 12 -119 4 -6 3 -8 -3 -5 -5 3 -32 39 -58 79 -58
88 -54 82 -60 77 -8 -8 106 -173 137 -199 48 -39 51 -52 27 -117 -30 -79 -46
-101 -80 -108 -17 -4 -29 -13 -29 -22 0 -16 -33 -14 -97 3 -40 11 -25 -12 16
-24 55 -17 85 -15 114 8 31 25 42 12 22 -26 -16 -31 -10 -50 7 -20 8 15 12 16
19 5 11 -19 2 -45 -32 -92 -16 -22 -29 -48 -29 -57 0 -9 -10 -25 -21 -36 l-22
-19 5 33 c4 31 -12 45 -27 22 -9 -15 -78 -48 -111 -54 -18 -4 -39 2 -60 14
-17 11 -46 20 -63 20 -40 0 -159 78 -228 150 -60 62 -141 213 -182 340 -17 51
-29 96 -26 98 4 5 25 -42 25 -56 0 -11 54 -139 95 -226 40 -86 73 -136 88
-136 6 0 3 8 -5 18 -14 16 -118 226 -118 238 0 3 -7 20 -15 37 -8 18 -28 77
-45 132 -17 54 -35 102 -40 105 -5 3 -15 41 -22 83 -6 42 -15 77 -20 77 -12 0
-11 -11 17 -171 42 -244 117 -412 270 -602 52 -65 95 -120 95 -123 0 -7 -89
44 -127 72 -42 32 -97 113 -161 238 -60 116 -93 212 -123 359 -12 59 -26 107
-31 107 -5 0 -7 -8 -4 -17 3 -10 8 -36 12 -58 3 -22 24 -110 45 -195 21 -85
41 -166 44 -180 l6 -25 -15 26 c-50 86 -125 448 -172 829 -11 88 -47 180 -72
180 -14 0 -13 -2 0 -17 16 -18 51 -123 44 -131 -2 -2 -13 1 -24 7 -26 14 -62
14 -62 1 0 -5 9 -10 21 -10 23 0 79 -36 79 -50 0 -5 -17 1 -37 13 -55 32 -175
31 -260 -3 -35 -14 -63 -28 -63 -32 0 -13 15 -9 67 13 70 32 193 32 250 1 30
-15 45 -31 49 -50 3 -15 8 -33 10 -40 2 -7 4 -64 4 -125 2 -295 28 -506 85
-666 8 -24 15 -47 15 -52 0 -5 -48 -9 -107 -9 -115 0 -236 -17 -227 -31 3 -5
-4 -9 -15 -9 -13 0 -21 -7 -21 -16 0 -11 5 -14 17 -10 39 15 106 17 243 7 128
-9 147 -13 159 -31 17 -25 33 -26 29 -2 -3 14 4 16 42 14 35 -3 53 -12 86 -42
48 -44 84 -66 84 -50 0 5 -4 10 -10 10 -11 0 -60 51 -60 62 0 17 25 7 64 -26
73 -59 217 -119 238 -98 8 8 2 13 -18 18 -42 10 -68 30 -110 81 -37 45 -36 46
25 8 54 -34 71 -49 71 -64 0 -13 2 -14 9 -2 7 11 17 12 43 5 34 -11 35 -14 24
-74 -2 -14 -5 -31 -5 -39 -1 -11 -4 -11 -15 -1 -12 9 -16 5 -21 -27 -17 -94
-23 -99 -24 -19 -1 44 -3 77 -6 74 -7 -6 -27 -319 -22 -325 3 -2 13 18 22 46
9 28 21 51 25 51 22 0 22 -71 0 -128 -13 -31 -27 -61 -32 -66 -4 -6 -8 -17 -8
-25 0 -28 26 9 54 76 30 73 31 83 10 143 -15 43 -15 47 6 93 12 27 26 47 32
45 6 -2 18 -24 28 -48 9 -24 20 -38 23 -33 8 12 -9 54 -36 95 -16 23 -17 32
-7 63 23 71 67 36 106 -84 12 -36 26 -67 31 -68 15 -5 25 76 22 176 -3 73 -1
86 13 89 13 3 17 -13 24 -95 13 -144 10 -312 -5 -358 -8 -22 -34 -69 -60 -105
-55 -78 -107 -158 -146 -225 -56 -98 -155 -244 -172 -255 -17 -10 -17 -11 1
-8 22 3 70 71 177 246 39 64 95 151 124 192 103 147 100 137 100 371 0 177 2
210 16 225 9 11 33 49 53 87 29 54 36 78 36 125 1 31 11 97 24 147 l24 89 -34
42 c-29 35 -36 52 -40 105 -24 307 -33 358 -80 492 -31 85 -118 285 -149 342
-12 22 -35 64 -51 93 -27 49 -51 72 -37 35z m-596 -993 c24 -110 55 -205 104
-320 19 -45 35 -84 35 -87 0 -2 -8 -2 -17 0 -10 3 -29 8 -43 11 -28 6 -35 23
-75 166 -28 104 -45 238 -44 345 1 79 1 79 10 30 5 -27 18 -93 30 -145z m133
-320 l17 -35 -20 25 c-11 14 -21 31 -21 39 0 18 4 14 24 -29z m84 -96 c-8 -7
-24 14 -45 59 -35 74 -27 79 13 8 19 -35 34 -65 32 -67z m-214 0 c25 -4 46
-10 46 -14 0 -9 -100 -2 -165 10 -39 8 -39 8 16 9 31 1 77 -2 103 -5z m161
-26 c14 -15 -64 -3 -79 12 -8 9 0 10 29 6 22 -4 44 -12 50 -18z m85 -8 c13 -8
13 -10 -2 -10 -9 0 -20 5 -23 10 -8 13 5 13 25 0z m510 -216 c0 -83 -11 -103
-25 -47 -9 40 -53 103 -70 103 -29 0 -15 19 18 23 83 10 77 17 77 -79z"/>
<path d="M2960 4483 c0 -35 224 -424 338 -588 72 -102 65 -93 105 -140 18 -22
40 -49 48 -61 20 -30 113 -131 108 -118 -2 6 -18 29 -36 50 -171 207 -376 513
-473 704 -53 105 -90 167 -90 153z"/>
<path d="M725 4410 c-3 -5 -1 -10 4 -10 6 0 11 5 11 10 0 6 -2 10 -4 10 -3 0
-8 -4 -11 -10z"/>
<path d="M2000 4333 c0 -5 26 -26 56 -48 50 -35 95 -82 138 -140 8 -11 15 -14
19 -8 9 15 -98 133 -155 172 -49 32 -58 36 -58 24z"/>
<path d="M1980 4262 c0 -5 22 -26 49 -48 26 -22 67 -62 91 -89 46 -54 60 -64
60 -44 0 6 -35 47 -79 89 -76 76 -121 110 -121 92z"/>
<path d="M2449 4222 c-88 -57 -177 -182 -128 -182 4 0 14 17 22 38 16 39 102
126 145 145 21 10 30 27 14 27 -4 0 -28 -13 -53 -28z"/>
<path d="M2481 4168 c-55 -45 -59 -58 -12 -38 16 6 35 9 42 4 7 -4 10 -3 6 3
-9 14 9 20 73 29 60 8 67 24 10 24 -22 0 -40 5 -40 10 0 20 -29 9 -79 -32z"/>
<path d="M2317 4152 c-39 -43 -77 -100 -77 -117 0 -16 20 0 42 33 14 20 41 55
61 77 20 22 37 43 37 48 0 17 -20 4 -63 -41z"/>
<path d="M1267 4123 c-23 -36 -62 -116 -143 -288 -45 -96 -191 -320 -226 -345
-4 -3 -3 -12 1 -19 7 -10 13 -7 27 15 11 16 27 38 37 50 68 79 148 215 208
353 13 30 48 102 77 159 53 106 64 146 19 75z"/>
<path d="M571 4126 c-8 -9 -11 -19 -7 -23 9 -9 29 13 24 27 -2 8 -8 7 -17 -4z"/>
<path d="M3186 3870 c6 -23 78 -136 169 -265 40 -57 170 -192 200 -207 11 -6
-10 20 -47 57 -89 89 -179 204 -250 318 -79 126 -80 127 -72 97z"/>
<path d="M1122 3696 c-36 -62 -141 -205 -171 -235 -29 -29 -55 -71 -44 -71 29
0 237 273 257 338 13 40 -8 23 -42 -32z"/>
<path d="M180 3698 c0 -19 2 -20 10 -8 13 19 13 30 0 30 -5 0 -10 -10 -10 -22z"/>
<path d="M1136 3623 c-57 -87 -160 -199 -227 -249 -27 -20 -47 -39 -44 -42 10
-10 117 72 176 136 68 75 152 198 146 215 -2 6 -25 -21 -51 -60z"/>
<path d="M160 3651 c0 -10 -15 -41 -34 -68 -18 -27 -43 -68 -56 -92 -12 -24
-33 -56 -46 -70 -15 -16 -24 -38 -24 -58 0 -44 12 -42 39 7 12 22 28 46 36 53
7 8 22 29 32 48 10 19 30 52 45 74 26 39 31 58 29 103 -1 27 -21 30 -21 3z"/>
<path d="M1200 3513 c-29 -56 -136 -165 -205 -211 -27 -18 -80 -41 -117 -53
-37 -11 -68 -24 -68 -29 0 -5 -8 -10 -17 -13 -14 -3 -11 -7 12 -18 43 -19 160
-17 223 5 60 20 153 99 172 146 19 45 5 47 -23 3 -40 -62 -74 -93 -133 -120
-61 -28 -164 -41 -204 -25 -24 9 -23 9 15 22 98 32 191 88 264 161 75 76 141
179 113 179 -4 0 -18 -21 -32 -47z"/>
<path d="M3729 3374 c18 -8 36 -13 39 -10 8 9 0 13 -38 20 l-35 6 34 -16z"/>
<path d="M696 3371 c-4 -5 -2 -12 3 -15 5 -4 12 -2 15 3 4 5 2 12 -3 15 -5 4
-12 2 -15 -3z"/>
<path d="M3614 3296 c20 -16 54 -21 111 -17 57 5 44 16 -18 16 -34 0 -73 4
-87 8 -24 8 -24 7 -6 -7z"/>
<path d="M3520 3286 c0 -8 69 -36 91 -36 34 0 20 17 -18 23 -21 3 -46 8 -55
12 -10 4 -18 4 -18 1z"/>
<path d="M277 3200 c-16 -5 -34 -13 -40 -19 -7 -5 -33 -12 -57 -15 -60 -6
-179 -65 -180 -88 0 -22 33 -24 50 -3 7 8 18 15 24 15 6 0 31 10 56 22 25 11
52 25 61 29 9 4 33 11 53 14 20 4 36 12 36 18 0 5 8 16 18 23 19 15 18 16 -21
4z"/>
<path d="M3430 3203 c0 -13 123 -113 139 -113 5 0 15 -9 21 -20 13 -25 67 -27
96 -4 18 14 16 15 -23 10 -32 -5 -43 -3 -43 7 0 7 -10 13 -22 14 -22 2 -93 48
-140 91 -16 14 -28 21 -28 15z"/>
<path d="M3460 3114 c0 -6 16 -29 35 -51 42 -49 121 -91 138 -74 8 8 5 11 -11
11 -41 0 -104 45 -147 105 -8 11 -15 15 -15 9z"/>
<path d="M1970 3106 c0 -2 7 -7 16 -10 8 -3 12 -2 9 4 -6 10 -25 14 -25 6z"/>
<path d="M1981 2979 c42 -38 86 -62 93 -50 6 9 -36 48 -73 68 -46 23 -56 14
-20 -18z"/>
<path d="M2594 2981 c-49 -22 -64 -41 -35 -41 12 0 21 4 21 9 0 5 16 15 35 21
19 6 35 16 35 21 0 13 -9 11 -56 -10z"/>
<path d="M1610 2923 c-74 -13 -132 -35 -122 -45 8 -8 15 -8 24 -1 33 27 270
45 363 28 34 -6 38 -5 27 6 -9 10 -47 14 -140 16 -70 0 -138 -1 -152 -4z"/>
<path d="M2670 2912 c0 -4 52 -5 115 -3 103 3 147 -2 230 -26 13 -3 17 -2 10
5 -19 19 -116 32 -235 32 -66 0 -120 -3 -120 -8z"/>
<path d="M1630 2879 c-75 -8 -128 -23 -154 -42 -23 -17 -12 -41 15 -34 11 3
19 1 19 -4 0 -5 -6 -9 -12 -9 -7 0 -1 -11 15 -24 15 -13 27 -28 27 -35 0 -6
17 -11 40 -11 43 0 57 23 20 33 -26 7 -26 37 -1 37 11 0 28 -13 38 -30 17 -30
18 -30 110 -30 55 0 93 4 93 10 0 6 -14 10 -31 10 -26 0 -30 3 -24 18 4 9 10
26 12 38 4 17 12 21 48 20 24 0 41 -4 39 -8 -3 -4 -1 -8 5 -8 5 0 13 5 16 10
3 6 15 10 26 10 11 0 17 5 14 10 -3 6 -15 10 -25 10 -10 0 -25 7 -33 15 -18
18 -159 26 -257 14z m40 -49 c-12 -22 -30 -18 -30 6 0 8 9 14 20 14 18 0 19
-3 10 -20z m-54 -10 c0 -11 -4 -20 -8 -20 -10 0 -11 24 -1 33 9 9 9 10 9 -13z
m-56 0 c0 -5 -7 -10 -16 -10 -8 0 -12 5 -9 10 3 6 10 10 16 10 5 0 9 -4 9 -10z
m-5 -39 c10 -17 -12 -21 -25 -6 -10 12 -10 15 3 15 9 0 18 -4 22 -9z"/>
<path d="M2672 2853 c-30 -4 -52 -26 -40 -39 3 -3 44 3 92 12 91 18 111 15 83
-14 -14 -14 -21 -14 -37 -4 -25 15 -25 12 1 -42 21 -47 32 -52 106 -55 41 -2
41 -2 49 41 4 24 7 49 5 56 -2 15 -6 15 75 -3 132 -31 103 5 -33 40 -54 14
-216 18 -301 8z m210 -111 c4 -4 -9 -7 -29 -7 -22 0 -38 5 -41 14 -4 11 3 13
29 7 18 -3 37 -10 41 -14z"/>
<path d="M3000 2730 c-13 -8 -12 -10 3 -10 9 0 17 5 17 10 0 12 -1 12 -20 0z"/>
<path d="M2958 2713 c7 -3 16 -2 19 1 4 3 -2 6 -13 5 -11 0 -14 -3 -6 -6z"/>
<path d="M2073 2628 c-17 -35 -43 -119 -43 -140 0 -29 18 -12 25 25 4 17 14
51 22 75 16 49 13 76 -4 40z"/>
<path d="M2141 2528 c0 -67 3 -96 9 -83 12 29 12 185 0 185 -6 0 -10 -40 -9
-102z"/>
<path d="M1030 2414 c0 -9 149 -222 160 -229 6 -3 10 -3 10 1 0 7 -112 176
-144 217 -13 17 -26 23 -26 11z"/>
<path d="M2131 2083 c20 -25 63 -63 72 -63 14 0 7 15 -24 48 -33 35 -74 47
-48 15z"/>
<path d="M2340 2055 c-16 -19 -2 -19 41 0 l34 14 -31 1 c-17 0 -37 -7 -44 -15z"/>
<path d="M1125 1959 c-4 -6 -5 -12 -2 -15 2 -3 7 2 10 11 7 17 1 20 -8 4z"/>
<path d="M1310 1770 c-8 -5 -11 -12 -7 -16 4 -4 15 0 24 9 18 18 8 23 -17 7z"/>
<path d="M1960 1772 c0 -16 96 -22 357 -22 161 0 254 4 258 10 4 7 -50 10
-167 8 -95 -2 -235 1 -310 5 -86 5 -138 5 -138 -1z"/>
<path d="M1330 1739 c0 -5 5 -7 10 -4 6 3 10 8 10 11 0 2 -4 4 -10 4 -5 0 -10
-5 -10 -11z"/>
<path d="M1213 1719 c-30 -10 -64 -30 -77 -46 l-25 -28 27 -5 c37 -7 81 10
115 43 48 49 35 61 -40 36z"/>
<path d="M1290 1720 c0 -5 7 -7 15 -4 8 4 15 8 15 10 0 2 -7 4 -15 4 -8 0 -15
-4 -15 -10z"/>
<path d="M2170 1611 c-11 -8 -5 -11 28 -11 23 0 42 -4 42 -10 0 -12 112 -13
126 -1 5 5 18 11 29 14 11 3 -12 5 -51 6 -39 0 -91 3 -115 6 -24 3 -51 1 -59
-4z"/>
<path d="M1015 1590 c3 -5 10 -10 16 -10 5 0 9 5 9 10 0 6 -7 10 -16 10 -8 0
-12 -4 -9 -10z"/>
<path d="M885 1579 c-48 -12 -55 -18 -61 -58 -6 -38 -1 -38 38 -6 16 14 38 25
48 25 10 0 22 5 25 11 4 6 12 8 19 6 7 -3 23 2 37 10 l24 14 -27 -6 c-16 -3
-28 -1 -28 5 0 12 -20 11 -75 -1z"/>
<path d="M65 1298 c-10 -33 -11 -128 -1 -125 16 5 24 49 13 80 -5 15 -6 34 -3
42 3 8 3 15 0 15 -2 0 -6 -6 -9 -12z"/>
<path d="M236 582 c-3 -5 1 -9 9 -9 8 0 12 4 9 9 -3 4 -7 8 -9 8 -2 0 -6 -4
-9 -8z"/>
<path d="M217 543 c-4 -3 -7 -11 -7 -17 0 -6 5 -5 12 2 6 6 9 14 7 17 -3 3 -9
2 -12 -2z"/>
<path d="M4100 290 c-9 -6 -10 -10 -3 -10 6 0 15 5 18 10 8 12 4 12 -15 0z"/>
</g>
</svg>
